<svg xmlns="http://www.w3.org/2000/svg" xmlns:xlink="http://www.w3.org/1999/xlink" width="1080" zoomAndPan="magnify" viewBox="0 0 810 809.999993" height="1080" preserveAspectRatio="xMidYMid meet" version="1.0"><path fill="#ffffff" d="M 586.441406 0 L 223.558594 0 C 100.441406 0 0 100.441406 0 223.558594 L 0 586.441406 C 0 709.558594 100.441406 810 223.558594 810 L 586.441406 810 C 709.558594 810 810 709.558594 810 586.441406 L 810 223.558594 C 810 100.441406 709.558594 0 586.441406 0 Z M 586.441406 738.179688 L 223.558594 738.179688 C 139.859375 738.179688 71.820312 670.140625 71.820312 586.441406 L 71.820312 223.558594 C 71.820312 139.859375 139.859375 71.820312 223.558594 71.820312 L 586.441406 71.820312 C 670.140625 71.820312 738.179688 139.859375 738.179688 223.558594 L 738.179688 586.441406 C 738.179688 670.140625 670.140625 738.179688 586.441406 738.179688 Z M 405 191.160156 C 289.980469 191.160156 196.019531 284.578125 196.019531 400.140625 C 196.019531 515.160156 289.441406 608.578125 405 608.578125 C 520.019531 608.578125 613.980469 515.160156 613.980469 400.140625 C 613.980469 284.578125 520.019531 191.160156 405 191.160156 Z M 405 536.761719 C 329.398438 536.761719 268.378906 475.199219 268.378906 400.140625 C 268.378906 324.539062 329.941406 263.519531 405 263.519531 C 480.058594 263.519531 541.621094 325.078125 541.621094 400.140625 C 541.621094 475.199219 480.601562 536.761719 405 536.761719 Z M 659.878906 145.261719 C 669.601562 154.980469 675.539062 168.480469 675.539062 182.519531 C 675.539062 196.558594 670.140625 210.058594 659.878906 219.78125 C 650.160156 229.5 636.660156 235.441406 622.621094 235.441406 C 608.578125 235.441406 595.078125 230.039062 585.359375 219.78125 C 575.640625 210.058594 569.699219 196.558594 569.699219 182.519531 C 569.699219 168.480469 575.101562 154.980469 585.359375 145.261719 C 595.078125 135.539062 608.578125 129.601562 622.621094 129.601562 C 636.121094 130.140625 650.160156 135.539062 659.878906 145.261719 Z M 659.878906 145.261719 " fill-opacity="1" fill-rule="nonzero"/></svg>