<svg xmlns="http://www.w3.org/2000/svg" xmlns:xlink="http://www.w3.org/1999/xlink" width="1080" zoomAndPan="magnify" viewBox="0 0 810 809.999993" height="1080" preserveAspectRatio="xMidYMid meet" version="1.0"><path fill="#ffffff" d="M 729 288.359375 C 729 460.078125 618.839844 598.859375 466.019531 598.859375 C 414.71875 598.859375 366.121094 572.398438 349.921875 541.621094 C 349.921875 541.621094 324.539062 636.660156 318.058594 660.421875 C 307.800781 698.761719 282.960938 745.199219 262.980469 778.140625 C 261.359375 780.839844 259.738281 784.078125 257.578125 786.78125 C 256.5 788.398438 255.421875 789.480469 254.878906 791.101562 C 248.398438 799.199219 241.378906 806.761719 233.820312 810 C 233.820312 810 225.179688 802.980469 220.320312 778.679688 C 220.320312 777.058594 219.238281 774.898438 219.238281 773.28125 C 218.699219 768.421875 218.160156 763.019531 217.621094 757.078125 C 217.621094 757.078125 217.621094 757.078125 217.621094 756.539062 C 214.378906 718.738281 213.300781 671.21875 221.398438 635.578125 C 230.578125 596.699219 280.800781 387.71875 280.800781 387.71875 C 280.800781 387.71875 266.21875 357.480469 266.21875 313.199219 C 266.21875 243.539062 307.261719 192.238281 358.019531 192.238281 C 401.21875 192.238281 422.28125 224.101562 422.28125 262.441406 C 422.28125 305.101562 394.738281 369.359375 380.160156 428.761719 C 368.28125 478.441406 405.539062 518.941406 455.21875 518.941406 C 545.398438 518.941406 614.519531 425.519531 614.519531 290.519531 C 614.519531 171.179688 527.039062 87.480469 402.839844 87.480469 C 258.660156 87.480469 173.878906 193.859375 173.878906 304.019531 C 173.878906 346.679688 190.621094 393.121094 211.679688 417.960938 C 215.460938 422.820312 216 427.140625 214.921875 432 C 211.140625 447.660156 202.5 481.679688 200.878906 488.699219 C 198.71875 497.878906 193.859375 499.5 184.140625 495.179688 C 120.421875 466.019531 81 375.300781 81 301.859375 C 81 144.71875 197.101562 0 416.339844 0 C 592.378906 0 729 123.121094 729 288.359375 Z M 729 288.359375 " fill-opacity="1" fill-rule="nonzero"/></svg>