<svg xmlns="http://www.w3.org/2000/svg" xmlns:xlink="http://www.w3.org/1999/xlink" width="1080" zoomAndPan="magnify" viewBox="0 0 810 809.999993" height="1080" preserveAspectRatio="xMidYMid meet" version="1.0"><path fill="#ffffff" d="M 422.28125 11.339844 C 465.480469 10.800781 508.140625 11.339844 550.800781 10.800781 C 552.421875 64.261719 574.019531 112.320312 608.578125 147.960938 C 645.839844 181.441406 693.898438 203.039062 747.359375 206.820312 L 747.898438 206.820312 L 747.898438 339.660156 C 697.679688 338.578125 650.160156 326.699219 607.5 306.71875 L 609.660156 307.800781 C 589.140625 298.078125 571.320312 287.820312 555.121094 276.480469 L 556.738281 277.558594 C 556.738281 373.679688 556.738281 469.800781 556.199219 565.378906 C 553.5 613.980469 537.300781 658.800781 511.378906 695.519531 L 511.378906 694.441406 C 468.179688 756.539062 397.980469 797.578125 318.058594 799.738281 C 314.820312 799.738281 311.039062 799.738281 307.261719 799.738281 C 261.898438 799.738281 219.238281 787.320312 183.058594 765.179688 L 184.140625 765.179688 C 118.261719 726.300781 72.359375 658.261719 64.261719 578.878906 L 64.261719 577.800781 C 63.71875 561.601562 63.179688 544.859375 64.261719 528.660156 C 77.21875 402.839844 182.519531 305.640625 310.5 305.640625 C 325.078125 305.640625 339.121094 306.71875 352.621094 309.417969 L 351 309.417969 C 351.539062 358.019531 349.921875 406.621094 349.921875 455.21875 C 338.578125 451.441406 326.160156 448.738281 312.660156 448.738281 C 263.519531 448.738281 221.941406 480.058594 206.28125 523.800781 C 203.039062 535.679688 200.878906 548.640625 200.878906 562.140625 C 200.878906 567.539062 200.878906 572.941406 201.960938 578.339844 C 210.601562 631.800781 257.039062 672.300781 312.660156 672.300781 L 317.519531 672.300781 C 355.859375 671.21875 389.339844 650.699219 408.238281 619.917969 C 415.261719 609.660156 420.121094 597.78125 421.738281 584.820312 C 424.980469 525.417969 423.898438 467.101562 423.898438 408.238281 C 423.898438 275.941406 423.898438 143.640625 424.441406 11.339844 Z M 422.28125 11.339844 " fill-opacity="1" fill-rule="nonzero"/></svg>