<svg xmlns="http://www.w3.org/2000/svg" xmlns:xlink="http://www.w3.org/1999/xlink" width="1080" zoomAndPan="magnify" viewBox="0 0 810 809.999993" height="1080" preserveAspectRatio="xMidYMid meet" version="1.0"><path fill="#ffffff" d="M 548.640625 288.359375 C 594 288.359375 636.660156 296.460938 675.539062 310.5 C 677.699219 297.539062 679.320312 284.039062 679.320312 270.539062 C 679.320312 121.5 527.039062 0 339.660156 0 C 152.28125 0 0 121.5 0 271.078125 C 0 348.300781 40.5 417.960938 105.839844 467.101562 L 104.761719 466.558594 C 104.761719 466.558594 127.980469 481.679688 121.5 513 C 115.019531 544.320312 109.621094 566.460938 113.941406 572.941406 C 118.261719 579.417969 129.601562 571.859375 178.199219 542.160156 C 200.339844 527.039062 219.78125 526.5 232.199219 528.121094 C 250.019531 393.121094 385.019531 288.359375 548.640625 288.359375 Z M 451.980469 140.398438 C 477.898438 140.398438 498.960938 160.378906 498.960938 185.21875 C 498.960938 210.058594 477.898438 230.039062 451.980469 230.039062 C 426.058594 230.039062 405 210.058594 405 185.21875 C 405 160.378906 426.058594 140.398438 451.980469 140.398438 Z M 179.820312 185.21875 C 179.820312 160.378906 200.878906 140.398438 226.800781 140.398438 C 252.71875 140.398438 273.78125 160.378906 273.78125 185.21875 C 273.78125 210.058594 252.71875 230.039062 226.800781 230.039062 C 200.878906 230.039062 179.820312 210.058594 179.820312 185.21875 Z M 810 561.601562 C 810 439.019531 692.820312 339.660156 548.640625 339.660156 C 404.460938 339.660156 287.28125 439.019531 287.28125 561.601562 C 287.28125 684.179688 404.460938 783.539062 548.640625 783.539062 C 574.019531 783.539062 597.78125 780.300781 621 774.898438 L 620.460938 775.441406 C 620.460938 775.441406 621 775.441406 621.539062 774.898438 C 624.78125 774.359375 628.019531 773.28125 631.261719 772.199219 C 640.980469 770.578125 656.101562 771.121094 673.921875 783.539062 C 711.179688 807.839844 720.359375 813.78125 723.601562 808.921875 C 726.839844 803.519531 722.519531 785.699219 717.660156 759.78125 C 712.261719 733.859375 730.621094 721.980469 730.621094 721.980469 L 730.078125 722.519531 C 778.679688 681.480469 810 624.78125 810 561.601562 Z M 462.238281 527.578125 C 442.261719 527.578125 426.058594 511.378906 426.058594 490.859375 C 426.058594 470.339844 442.261719 454.140625 462.238281 454.140625 C 482.21875 454.140625 498.421875 470.339844 498.421875 490.859375 C 498.421875 511.378906 482.21875 527.578125 462.238281 527.578125 Z M 635.578125 527.578125 C 615.601562 527.578125 599.398438 511.378906 599.398438 490.859375 C 599.398438 470.339844 615.601562 454.140625 635.578125 454.140625 C 655.558594 454.140625 671.761719 470.339844 671.761719 490.859375 C 671.761719 511.378906 655.558594 527.578125 635.578125 527.578125 Z M 635.578125 527.578125 " fill-opacity="1" fill-rule="nonzero"/></svg>