<svg xmlns="http://www.w3.org/2000/svg" xmlns:xlink="http://www.w3.org/1999/xlink" width="1080" zoomAndPan="magnify" viewBox="0 0 810 809.999993" height="1080" preserveAspectRatio="xMidYMid meet" version="1.0"><path fill="#ffffff" d="M 410.398438 810 C 291.601562 810 194.398438 766.800781 135 691.199219 C 81 621 48.601562 523.800781 48.601562 405 C 48.601562 286.199219 75.601562 189 135 118.800781 C 194.398438 43.199219 286.199219 0 410.398438 0 C 502.199219 0 583.199219 27 642.601562 70.199219 C 696.601562 113.398438 739.800781 178.199219 761.398438 253.800781 L 691.199219 275.398438 C 653.398438 140.398438 561.601562 75.601562 410.398438 70.199219 C 313.199219 70.199219 237.601562 102.601562 189 162 C 145.800781 216 118.800781 297 118.800781 405 C 118.800781 507.601562 140.398438 588.601562 189 648 C 237.601562 707.398438 313.199219 739.800781 410.398438 739.800781 C 496.800781 739.800781 556.199219 718.199219 604.800781 669.601562 C 658.800781 615.601562 658.800781 550.800781 642.601562 507.601562 C 631.800781 486 615.601562 464.398438 588.601562 448.199219 C 583.199219 491.398438 567 529.199219 545.398438 556.199219 C 513 594 475.199219 615.601562 421.199219 615.601562 C 378 615.601562 340.199219 610.199219 313.199219 588.601562 C 275.398438 567 253.800781 529.199219 253.800781 486 C 253.800781 448.199219 270 410.398438 297 383.398438 C 329.398438 356.398438 367.199219 340.199219 415.800781 340.199219 C 453.601562 340.199219 486 340.199219 518.398438 340.199219 C 518.398438 313.199219 507.601562 297 491.398438 280.800781 C 475.199219 259.199219 448.199219 248.398438 410.398438 248.398438 C 383.398438 248.398438 345.601562 253.800781 318.601562 291.601562 L 259.199219 253.800781 C 291.601562 205.199219 345.601562 178.199219 410.398438 178.199219 C 518.398438 178.199219 583.199219 243 588.601562 361.800781 C 588.601562 361.800781 594 361.800781 599.398438 361.800781 C 648 383.398438 685.800781 421.199219 707.398438 464.398438 C 734.398438 523.800781 734.398438 626.398438 653.398438 707.398438 C 588.601562 766.800781 513 793.800781 410.398438 799.199219 Z M 442.800781 415.800781 C 432 415.800781 426.601562 415.800781 415.800781 415.800781 C 356.398438 415.800781 313.199219 448.199219 318.601562 486 C 318.601562 529.199219 367.199219 545.398438 410.398438 545.398438 C 453.601562 545.398438 507.601562 529.199219 513 421.199219 C 491.398438 421.199219 464.398438 415.800781 437.398438 415.800781 Z M 442.800781 415.800781 " fill-opacity="1" fill-rule="nonzero"/></svg>