<svg xmlns="http://www.w3.org/2000/svg" xmlns:xlink="http://www.w3.org/1999/xlink" width="1080" zoomAndPan="magnify" viewBox="0 0 810 809.999993" height="1080" preserveAspectRatio="xMidYMid meet" version="1.0"><path fill="#ffffff" d="M 597.78125 409.859375 C 584.28125 405 579.960938 405 584.28125 386.101562 C 597.78125 352.621094 597.78125 319.140625 584.28125 300.238281 C 557.820312 261.898438 487.078125 261.898438 407.160156 300.238281 C 407.160156 300.238281 380.699219 314.820312 389.339844 290.519531 C 402.839844 247.320312 397.980469 208.980469 380.699219 190.078125 C 336.421875 142.019531 221.398438 190.078125 119.339844 300.238281 C 44.28125 381.238281 0 467.101562 0 543.78125 C 0 687.421875 167.941406 783 332.101562 783 C 549.179688 783 690.660156 634.5 690.660156 529.199219 C 694.980469 462.238281 642.058594 423.898438 597.78125 409.859375 Z M 336.421875 716.039062 C 203.578125 730.621094 92.878906 663.660156 84.238281 572.398438 C 75.058594 476.820312 172.800781 390.421875 305.640625 376.378906 C 438.480469 361.800781 549.179688 424.441406 557.820312 520.019531 C 566.460938 615.601562 469.261719 701.460938 336.421875 716.039062 Z M 810 289.980469 C 810 146.339844 699.300781 27 566.460938 27 C 548.640625 27 540 41.578125 540 55.621094 C 540 74.519531 553.5 84.238281 566.460938 84.238281 C 668.519531 84.238281 752.21875 174.960938 752.21875 285.121094 C 752.21875 304.019531 765.71875 313.738281 778.679688 313.738281 C 801.359375 323.460938 810 309.421875 810 289.980469 Z M 699.300781 285.121094 C 685.800781 218.160156 637.199219 160.921875 570.78125 146.339844 C 557.820312 142.019531 540 156.058594 535.679688 170.640625 C 531.359375 185.21875 544.320312 204.121094 557.820312 208.980469 C 597.78125 218.699219 632.878906 252.179688 642.058594 299.699219 C 646.378906 314.28125 659.878906 328.320312 677.699219 323.460938 C 690.660156 319.140625 703.621094 304.558594 699.300781 285.121094 Z M 270 471.960938 C 217.078125 481.679688 181.441406 529.199219 190.078125 577.261719 C 198.71875 625.320312 247.859375 653.941406 300.78125 644.21875 C 353.699219 634.5 389.339844 586.980469 380.699219 538.921875 C 372.058594 486.539062 322.921875 457.378906 270 471.960938 Z M 270 471.960938 " fill-opacity="1" fill-rule="nonzero"/></svg>