<svg xmlns="http://www.w3.org/2000/svg" xmlns:xlink="http://www.w3.org/1999/xlink" width="1080" zoomAndPan="magnify" viewBox="0 0 810 809.999993" height="1080" preserveAspectRatio="xMidYMid meet" version="1.0"><path fill="#ffffff" d="M 810 481.140625 L 810 791.101562 L 642.601562 791.101562 L 642.601562 501.660156 C 642.601562 429.300781 617.21875 379.621094 556.199219 379.621094 C 509.761719 379.621094 481.140625 413.101562 468.71875 445.5 C 464.941406 456.839844 462.78125 473.039062 462.78125 489.238281 L 462.78125 791.101562 L 295.378906 791.101562 C 295.378906 791.101562 297.539062 302.398438 295.378906 251.101562 L 462.78125 251.101562 L 462.78125 327.238281 C 462.78125 327.78125 463.320312 327.78125 462.78125 327.78125 L 462.78125 327.238281 C 488.699219 290.519531 525.960938 237.601562 615.601562 237.601562 C 726.300781 237.601562 810 314.820312 810 481.140625 Z M 90.71875 19.441406 C 35.640625 19.441406 0 58.320312 0 109.078125 C 0 159.300781 34.558594 199.261719 88.558594 199.261719 L 89.640625 199.261719 C 145.261719 199.261719 180.359375 159.300781 180.359375 109.078125 C 178.738281 58.320312 145.261719 19.441406 90.71875 19.441406 Z M 12.960938 790.558594 L 167.398438 790.558594 L 167.398438 250.558594 L 12.960938 250.558594 Z M 12.960938 790.558594 " fill-opacity="1" fill-rule="nonzero"/></svg>