<svg xmlns="http://www.w3.org/2000/svg" xmlns:xlink="http://www.w3.org/1999/xlink" width="1080" zoomAndPan="magnify" viewBox="0 0 810 809.999993" height="1080" preserveAspectRatio="xMidYMid meet" version="1.0"><path fill="#a37e2c" d="M 307.679688 222.734375 C 309.257812 222.734375 310.054688 222.734375 310.835938 221.941406 L 351.863281 359.203125 C 356.59375 374.195312 378.679688 386.03125 405.507812 386.03125 C 432.324219 386.03125 454.410156 374.195312 459.140625 359.203125 L 499.375 221.941406 C 500.167969 221.941406 501.746094 221.941406 502.527344 221.941406 C 510.425781 221.941406 516.734375 215.632812 516.734375 207.746094 C 516.734375 199.855469 510.425781 193.546875 502.527344 193.546875 C 494.640625 193.546875 488.332031 199.855469 488.332031 207.746094 C 488.332031 213.261719 491.484375 218.003906 496.21875 220.363281 L 449.675781 320.550781 L 457.5625 185.660156 C 465.453125 185.660156 471.773438 179.339844 471.773438 171.453125 C 471.773438 163.566406 465.453125 157.253906 457.5625 157.253906 C 449.675781 157.253906 443.367188 163.566406 443.367188 171.453125 C 443.367188 177.761719 448.097656 183.289062 453.625 184.867188 L 422.859375 316.613281 L 407.085938 172.246094 C 414.179688 171.453125 418.910156 165.140625 418.910156 158.046875 C 418.910156 150.160156 412.601562 143.839844 404.714844 143.839844 C 396.824219 143.839844 390.515625 150.160156 390.515625 158.046875 C 390.515625 165.140625 396.03125 171.453125 402.339844 172.246094 L 387.359375 317.394531 L 357.378906 185.660156 C 363.6875 184.082031 367.636719 178.554688 367.636719 172.246094 C 367.636719 164.359375 361.328125 158.046875 353.4375 158.046875 C 345.550781 158.046875 339.242188 164.359375 339.242188 172.246094 C 339.242188 180.132812 345.550781 186.441406 353.4375 186.441406 L 361.328125 321.34375 L 314.785156 221.160156 C 319.519531 218.789062 322.671875 214.054688 322.671875 208.527344 C 322.671875 200.640625 316.363281 194.332031 308.476562 194.332031 C 300.578125 194.332031 294.269531 200.640625 294.269531 208.527344 C 293.484375 216.425781 299.792969 222.734375 307.679688 222.734375 Z M 405.507812 347.378906 C 429.953125 347.378906 449.675781 353.6875 449.675781 361.574219 C 449.675781 369.464844 429.953125 375.773438 405.507812 375.773438 C 381.050781 375.773438 361.328125 369.464844 361.328125 361.574219 C 360.53125 353.6875 381.050781 347.378906 405.507812 347.378906 Z M 405.507812 347.378906 " fill-opacity="1" fill-rule="nonzero"/><path fill="#9bf9ce" d="M 151.488281 573.773438 L 142.808594 547.75 C 138.867188 535.914062 135.703125 531.183594 129.394531 524.871094 C 125.457031 520.921875 119.144531 519.347656 114.414062 517.769531 C 130.972656 515.40625 143.601562 500.417969 143.601562 483.0625 C 143.601562 464.125 127.816406 448.347656 108.886719 448.347656 C 108.886719 448.347656 108.101562 448.347656 108.101562 448.347656 L 4.761719 448.347656 L 4.761719 458.605469 L 23.691406 458.605469 L 23.691406 573.773438 L 3.96875 573.773438 L 3.96875 584.035156 L 74.179688 584.035156 L 74.179688 573.773438 L 55.242188 573.773438 L 55.242188 518.5625 L 70.234375 518.5625 C 71.027344 518.5625 71.027344 518.5625 71.808594 518.5625 L 74.964844 518.5625 C 79.699219 518.5625 83.644531 519.347656 87.585938 520.140625 C 90.738281 520.921875 94.6875 522.5 97.050781 524.078125 C 100.207031 526.449219 104.152344 529.605469 107.308594 534.335938 C 108.101562 535.914062 108.886719 537.492188 109.679688 538.277344 C 115.195312 549.328125 119.144531 564.308594 123.082031 583.25 L 168.046875 583.25 L 168.046875 572.992188 Z M 88.378906 508.304688 L 55.242188 508.304688 L 55.242188 458.605469 L 88.378906 458.605469 C 102.578125 459.390625 113.617188 468.855469 113.617188 483.0625 C 113.617188 497.261719 102.578125 507.511719 88.378906 508.304688 Z M 88.378906 508.304688 " fill-opacity="1" fill-rule="nonzero"/><path fill="#9bf9ce" d="M 248.519531 443.617188 C 207.496094 443.617188 175.152344 476.742188 175.152344 516.191406 C 175.152344 555.640625 208.289062 588.765625 248.519531 588.765625 C 289.535156 588.765625 321.878906 555.640625 321.878906 516.191406 C 321.878906 476.742188 289.535156 443.617188 248.519531 443.617188 Z M 279.285156 558 C 276.914062 561.15625 273.761719 564.308594 270.605469 566.679688 C 265.078125 570.621094 258.769531 573.773438 252.460938 573.773438 C 250.882812 573.773438 250.097656 573.773438 248.519531 573.773438 C 246.941406 573.773438 246.148438 573.773438 244.570312 573.773438 C 238.261719 573.773438 231.953125 570.621094 226.425781 566.679688 C 223.269531 564.308594 220.117188 561.15625 217.753906 558 C 209.867188 547.75 205.132812 532.761719 205.132812 516.191406 C 205.132812 500.417969 209.074219 487.003906 216.175781 475.960938 C 220.117188 468.855469 225.640625 463.339844 233.527344 460.183594 C 233.527344 460.183594 234.3125 460.183594 234.3125 459.390625 C 235.105469 458.605469 235.890625 458.605469 237.476562 458.605469 C 240.632812 457.8125 244.570312 457.03125 247.726562 457.03125 C 251.675781 457.03125 254.832031 457.8125 257.984375 458.605469 C 258.769531 458.605469 260.347656 459.390625 261.140625 459.390625 C 261.140625 459.390625 261.925781 459.390625 261.925781 460.183594 C 269.027344 463.339844 275.335938 468.855469 279.285156 475.960938 C 286.378906 486.21875 290.328125 500.417969 290.328125 516.191406 C 291.90625 532.761719 287.175781 547.75 279.285156 558 Z M 279.285156 558 " fill-opacity="1" fill-rule="nonzero"/><path fill="#9bf9ce" d="M 467.824219 531.183594 L 457.5625 531.183594 L 457.5625 551.691406 C 457.5625 564.308594 447.316406 573.773438 434.6875 573.773438 L 391.300781 573.773438 L 391.300781 458.605469 L 411.023438 458.605469 L 411.023438 448.347656 L 340.023438 448.347656 L 340.023438 458.605469 L 359.75 458.605469 L 359.75 573.773438 L 340.023438 573.773438 L 340.023438 584.035156 L 467.824219 584.035156 Z M 467.824219 531.183594 " fill-opacity="1" fill-rule="nonzero"/><path fill="#9bf9ce" d="M 624.015625 449.140625 L 489.90625 449.140625 L 489.90625 459.390625 L 509.632812 459.390625 L 509.632812 574.570312 L 489.90625 574.570312 L 489.90625 584.828125 L 624.808594 584.828125 L 624.808594 536.699219 L 614.550781 536.699219 L 614.550781 552.484375 C 614.550781 565.105469 604.300781 574.570312 591.671875 574.570312 L 540.398438 574.570312 L 540.398438 516.984375 L 556.96875 516.984375 C 566.433594 516.984375 573.535156 524.871094 573.535156 533.542969 L 573.535156 541.429688 L 583 541.429688 L 583 484.640625 L 573.535156 484.640625 L 573.535156 490.949219 C 573.535156 500.417969 566.433594 506.726562 556.96875 506.726562 L 540.398438 506.726562 L 540.398438 457.8125 L 570.378906 457.8125 C 570.378906 457.8125 570.378906 457.8125 571.164062 457.8125 L 591.671875 457.8125 C 604.300781 457.8125 613.765625 468.074219 614.550781 479.898438 L 614.550781 494.105469 L 624.808594 494.105469 L 624.808594 480.691406 Z M 624.015625 449.140625 " fill-opacity="1" fill-rule="nonzero"/><path fill="#9bf9ce" d="M 799.933594 574.570312 C 790.46875 574.570312 788.105469 571.414062 780.21875 562.734375 L 735.246094 506.726562 L 765.226562 471.226562 C 773.113281 461.761719 775.484375 458.605469 785.734375 458.605469 L 793.621094 458.605469 L 793.621094 448.347656 L 738.410156 448.347656 L 738.410156 458.605469 L 751.03125 458.605469 C 753.390625 458.605469 755.761719 460.96875 755.761719 463.339844 C 755.761719 464.125 755.761719 464.917969 754.96875 465.703125 L 728.933594 497.261719 L 706.847656 472.011719 L 702.910156 466.496094 C 702.117188 465.703125 702.117188 464.917969 702.117188 463.339844 C 702.117188 460.96875 704.488281 458.605469 706.847656 458.605469 L 718.6875 458.605469 L 718.6875 448.347656 L 650.050781 448.347656 L 650.050781 458.605469 L 653.203125 458.605469 C 661.886719 459.390625 664.246094 461.761719 671.351562 469.648438 L 710.796875 519.347656 L 675.300781 561.949219 C 667.402344 571.414062 665.039062 574.570312 654.78125 574.570312 L 646.109375 574.570312 L 646.109375 584.828125 L 705.273438 584.828125 L 705.273438 574.570312 L 690.28125 574.570312 C 687.917969 574.570312 685.546875 572.199219 685.546875 569.835938 C 685.546875 569.042969 686.34375 567.464844 686.34375 566.679688 L 717.890625 528.8125 L 743.925781 561.949219 L 747.875 566.679688 C 748.660156 567.464844 748.660156 568.257812 748.660156 569.835938 C 748.660156 572.199219 746.296875 574.570312 743.925781 574.570312 L 731.304688 574.570312 L 731.304688 584.828125 L 804.675781 584.828125 L 804.675781 574.570312 Z M 799.933594 574.570312 " fill-opacity="1" fill-rule="nonzero"/></svg>